<svg width="1920" height="4870" viewBox="0 0 1920 4870" fill="none" xmlns="http://www.w3.org/2000/svg">
<path fill-rule="evenodd" clip-rule="evenodd" d="M390 0H389V5000H390V0ZM770 0H769V5000H770V0ZM1149 0H1150V5000H1149V0ZM1530 0H1529V5000H1530V0Z" fill="#ECEFF8"/>
<path fill-rule="evenodd" clip-rule="evenodd" d="M3029.79 758.956L3029.29 758.09L-1300.83 3258.09L-1300.33 3258.96L3029.79 758.956ZM2839.79 617.866L2839.29 617L-1490.84 3117L-1490.34 3117.87L2839.79 617.866Z" fill="#ECEFF8"/>
<path fill-rule="evenodd" clip-rule="evenodd" d="M3029.8 2287.96L3029.3 2287.09L-1300.83 4787.09L-1300.33 4787.96L3029.8 2287.96ZM2839.79 2176.87L2839.29 2176L-1490.84 4676L-1490.34 4676.87L2839.79 2176.87Z" fill="#ECEFF8"/>
</svg>
