<svg width="68" height="68" viewBox="0 0 68 68" fill="none" xmlns="http://www.w3.org/2000/svg">
<path d="M66.8667 62.3332H60.0667V20.3999C60.0667 19.774 59.5592 19.2666 58.9333 19.2666H39.6667V4.53324C39.6667 3.90735 39.1592 3.3999 38.5333 3.3999H9.06667C8.44078 3.3999 7.93333 3.90735 7.93333 4.53324V62.3332H1.13333C0.50745 62.3332 0 62.8407 0 63.4666C0 64.0925 0.50745 64.5999 1.13333 64.5999H66.8667C67.4925 64.5999 68 64.0925 68 63.4666C68 62.8407 67.4925 62.3332 66.8667 62.3332ZM37.4 62.3332H10.2V5.66657H37.4V62.3332ZM57.8 62.3332H39.6667V21.5332H57.8V62.3332Z" fill="#E0E6F1"/>
<path d="M45.3326 32.8665H52.1326C52.7584 32.8665 53.2659 32.359 53.2659 31.7331V24.9331C53.2659 24.3073 52.7584 23.7998 52.1326 23.7998H45.3326C44.7067 23.7998 44.1992 24.3073 44.1992 24.9331V31.7331C44.1992 32.359 44.7067 32.8665 45.3326 32.8665ZM46.4659 26.0665H50.9992V30.5998H46.4659V26.0665Z" fill="#E0E6F1"/>
<path d="M45.3326 44.2H52.1326C52.7584 44.2 53.2659 43.6925 53.2659 43.0666V36.2666C53.2659 35.6408 52.7584 35.1333 52.1326 35.1333H45.3326C44.7067 35.1333 44.1992 35.6408 44.1992 36.2666V43.0666C44.1992 43.6925 44.7067 44.2 45.3326 44.2ZM46.4659 37.4H50.9992V41.9333H46.4659V37.4Z" fill="#E0E6F1"/>
<path d="M45.3326 55.5335H52.1326C52.7584 55.5335 53.2659 55.026 53.2659 54.4001V47.6001C53.2659 46.9742 52.7584 46.4668 52.1326 46.4668H45.3326C44.7067 46.4668 44.1992 46.9742 44.1992 47.6001V54.4001C44.1992 55.026 44.7067 55.5335 45.3326 55.5335ZM46.4659 48.7335H50.9992V53.2668H46.4659V48.7335Z" fill="#E0E6F1"/>
<path d="M26.0669 32.8665H32.8669C33.4928 32.8665 34.0003 32.359 34.0003 31.7331V24.9331C34.0003 24.3073 33.4928 23.7998 32.8669 23.7998H26.0669C25.441 23.7998 24.9336 24.3073 24.9336 24.9331V31.7331C24.9336 32.359 25.441 32.8665 26.0669 32.8665ZM27.2003 26.0665H31.7336V30.5998H27.2003V26.0665Z" fill="#E0E6F1"/>
<path d="M26.0669 21.5335H32.8669C33.4928 21.5335 34.0003 21.026 34.0003 20.4001V13.6001C34.0003 12.9742 33.4928 12.4668 32.8669 12.4668H26.0669C25.441 12.4668 24.9336 12.9742 24.9336 13.6001V20.4001C24.9336 21.026 25.441 21.5335 26.0669 21.5335ZM27.2003 14.7335H31.7336V19.2668H27.2003V14.7335Z" fill="#E0E6F1"/>
<path d="M26.0669 44.2H32.8669C33.4928 44.2 34.0003 43.6925 34.0003 43.0666V36.2666C34.0003 35.6408 33.4928 35.1333 32.8669 35.1333H26.0669C25.441 35.1333 24.9336 35.6408 24.9336 36.2666V43.0666C24.9336 43.6925 25.441 44.2 26.0669 44.2ZM27.2003 37.4H31.7336V41.9333H27.2003V37.4Z" fill="#E0E6F1"/>
<path d="M26.0669 55.5335H32.8669C33.4928 55.5335 34.0003 55.026 34.0003 54.4001V47.6001C34.0003 46.9742 33.4928 46.4668 32.8669 46.4668H26.0669C25.441 46.4668 24.9336 46.9742 24.9336 47.6001V54.4001C24.9336 55.026 25.441 55.5335 26.0669 55.5335ZM27.2003 48.7335H31.7336V53.2668H27.2003V48.7335Z" fill="#E0E6F1"/>
<path d="M14.7329 32.8665H21.5329C22.1588 32.8665 22.6663 32.359 22.6663 31.7331V24.9331C22.6663 24.3073 22.1588 23.7998 21.5329 23.7998H14.7329C14.1071 23.7998 13.5996 24.3073 13.5996 24.9331V31.7331C13.5996 32.359 14.1071 32.8665 14.7329 32.8665ZM15.8663 26.0665H20.3996V30.5998H15.8663V26.0665Z" fill="#E0E6F1"/>
<path d="M14.7329 21.5335H21.5329C22.1588 21.5335 22.6663 21.026 22.6663 20.4001V13.6001C22.6663 12.9742 22.1588 12.4668 21.5329 12.4668H14.7329C14.1071 12.4668 13.5996 12.9742 13.5996 13.6001V20.4001C13.5996 21.026 14.1071 21.5335 14.7329 21.5335ZM15.8663 14.7335H20.3996V19.2668H15.8663V14.7335Z" fill="#E0E6F1"/>
<path d="M14.7329 44.2H21.5329C22.1588 44.2 22.6663 43.6925 22.6663 43.0666V36.2666C22.6663 35.6408 22.1588 35.1333 21.5329 35.1333H14.7329C14.1071 35.1333 13.5996 35.6408 13.5996 36.2666V43.0666C13.5996 43.6925 14.1071 44.2 14.7329 44.2ZM15.8663 37.4H20.3996V41.9333H15.8663V37.4Z" fill="#E0E6F1"/>
<path d="M14.7329 55.5335H21.5329C22.1588 55.5335 22.6663 55.026 22.6663 54.4001V47.6001C22.6663 46.9742 22.1588 46.4668 21.5329 46.4668H14.7329C14.1071 46.4668 13.5996 46.9742 13.5996 47.6001V54.4001C13.5996 55.026 14.1071 55.5335 14.7329 55.5335ZM15.8663 48.7335H20.3996V53.2668H15.8663V48.7335Z" fill="#E0E6F1"/>
</svg>
