<svg width="75" height="75" viewBox="0 0 75 75" fill="none" xmlns="http://www.w3.org/2000/svg">
<path d="M62.3563 27.0032H44.4938L48.4188 17.1876C48.97 15.8156 49.1057 14.3119 48.8089 12.8633C48.5122 11.4148 47.7962 10.0855 46.75 9.04074C46.1645 8.45435 45.4582 8.00267 44.6803 7.71717C43.9024 7.43167 43.0716 7.31921 42.2458 7.38763C41.4199 7.45605 40.619 7.70371 39.8987 8.11334C39.1783 8.52298 38.556 9.08474 38.075 9.75949L27.6906 24.2939C26.1436 26.4634 24.4189 28.5007 22.5344 30.3845L21.2188 31.7001C20.4994 30.0575 19.2368 28.7125 17.643 27.8906C16.0493 27.0688 14.2213 26.8202 12.4659 27.1867C10.7106 27.5532 9.13471 28.5123 8.00287 29.9032C6.87103 31.294 6.25211 33.0319 6.25 34.8251V59.8251C6.25211 61.6183 6.87103 63.3562 8.00287 64.7471C9.13471 66.1379 10.7106 67.0971 12.4659 67.4635C14.2213 67.83 16.0493 67.5815 17.643 66.7596C19.2368 65.9378 20.4994 64.5927 21.2188 62.9501L22.9344 64.6689C23.8766 65.6151 24.9968 66.3654 26.2304 66.8766C27.464 67.3877 28.7866 67.6495 30.1219 67.647H50.375C51.962 67.6472 53.515 67.1874 54.846 66.3233C56.1771 65.4592 57.2292 64.2279 57.875 62.7782L67.8125 40.4126C68.4344 39.0029 68.7537 37.4784 68.75 35.9376V33.4032C68.7492 31.7072 68.0755 30.0808 66.8768 28.8809C65.6781 27.681 64.0523 27.0057 62.3563 27.0032ZM14.0625 64.5032C12.8193 64.5032 11.627 64.0094 10.7479 63.1303C9.86886 62.2512 9.375 61.0589 9.375 59.8157V34.8157C9.375 33.5725 9.86886 32.3803 10.7479 31.5012C11.627 30.6221 12.8193 30.1282 14.0625 30.1282C15.3057 30.1282 16.498 30.6221 17.3771 31.5012C18.2561 32.3803 18.75 33.5725 18.75 34.8157V59.8157C18.75 61.0589 18.2561 62.2512 17.3771 63.1303C16.498 64.0094 15.3057 64.5032 14.0625 64.5032ZM65.625 35.9376C65.6268 37.0445 65.3946 38.1392 64.9437 39.1501L55 61.4907C54.6011 62.3876 53.9507 63.1494 53.1276 63.6841C52.3045 64.2188 51.344 64.5033 50.3625 64.5032H30.1313C29.2026 64.507 28.2824 64.3263 27.4241 63.9718C26.5658 63.6172 25.7865 63.0957 25.1312 62.4376L21.875 59.1689V35.4626L24.7438 32.5939C26.7507 30.5876 28.5882 28.4187 30.2375 26.1095L40.625 11.5782C40.8407 11.2739 41.1202 11.0203 41.4441 10.8351C41.7679 10.65 42.1283 10.5378 42.5 10.5064C42.8734 10.4765 43.2488 10.5279 43.6005 10.6568C43.9522 10.7857 44.2718 10.9892 44.5375 11.2532C45.1505 11.8658 45.57 12.6449 45.7439 13.4938C45.9178 14.3427 45.8384 15.224 45.5156 16.0282L40.7344 27.9876C40.64 28.2245 40.6051 28.4809 40.6326 28.7344C40.6602 28.988 40.7493 29.2309 40.8923 29.442C41.0354 29.6532 41.2279 29.8261 41.4531 29.9457C41.6783 30.0653 41.9294 30.128 42.1844 30.1282H62.3531C63.2203 30.1282 64.0521 30.4725 64.6656 31.0854C65.2791 31.6984 65.6242 32.5298 65.625 33.397V35.9376Z" fill="#E0E6F1"/>
</svg>
