<svg width="140" height="52" viewBox="0 0 140 52" fill="none" xmlns="http://www.w3.org/2000/svg">
<path fill-rule="evenodd" clip-rule="evenodd" d="M132.968 47.6492H134.448C135.155 47.6492 135.573 47.9791 135.573 48.5711C135.573 49.1437 135.155 49.4833 134.448 49.4833H132.968V47.6492ZM134.568 50.0705C135.64 50.0705 136.251 49.4494 136.251 48.5565C136.251 47.6443 135.592 47.0523 134.539 47.0523H132.968V45.5335H132.299V50.0705H134.568ZM129.641 50.0705V46.1255H131.266V45.5335H127.343V46.1255H128.973V50.0705H129.641ZM125.147 50.1821C125.695 50.1821 126.18 50.0511 126.598 49.7987V49.1776C126.199 49.4397 125.752 49.5707 125.248 49.5707C124.738 49.5707 124.301 49.4008 123.954 49.0709C123.608 48.7312 123.445 48.3091 123.445 47.8044C123.445 47.2852 123.613 46.8679 123.954 46.538C124.301 46.1983 124.733 46.0333 125.248 46.0333C125.685 46.0333 126.103 46.1449 126.512 46.3827V45.7519C126.132 45.5335 125.675 45.4219 125.151 45.4219C124.474 45.4219 123.897 45.6451 123.44 46.1061C122.983 46.5574 122.753 47.1202 122.753 47.7947C122.753 48.4789 122.974 49.0418 123.43 49.5027C123.892 49.9589 124.469 50.1821 125.147 50.1821ZM121.147 47.8093C121.147 48.3091 120.979 48.7312 120.652 49.066C120.325 49.4057 119.907 49.5707 119.407 49.5707C118.907 49.5707 118.489 49.4009 118.162 49.066C117.835 48.7264 117.672 48.3042 117.672 47.8093C117.672 47.3046 117.84 46.8776 118.162 46.5428C118.489 46.2031 118.907 46.0382 119.407 46.0382C119.912 46.0382 120.33 46.208 120.652 46.5428C120.979 46.8776 121.147 47.2998 121.147 47.8093ZM117.662 46.1255C117.205 46.5865 116.984 47.1494 116.984 47.8044C116.984 48.4595 117.205 49.0224 117.662 49.4833C118.119 49.9443 118.696 50.1772 119.412 50.1772C120.128 50.1772 120.705 49.9443 121.162 49.4833C121.618 49.0224 121.839 48.4595 121.839 47.8044C121.839 47.1494 121.618 46.5816 121.162 46.1255C120.705 45.6548 120.128 45.4219 119.412 45.4219C118.691 45.4219 118.114 45.6597 117.662 46.1255ZM111.475 50.0705V46.4652L113.139 48.4255H113.398L115.071 46.4652V50.0705H115.725V45.5335H115.071L113.268 47.6394L111.475 45.5335H110.827V50.0705H111.475ZM105.697 50.0705L108.572 46.538V50.0705H109.24V45.5335H108.615L105.741 49.0709V45.5335H105.073V50.0705H105.697ZM97.6265 45.5335L99.7368 47.6394L97.4102 50.0705H98.2851L100.367 47.8724V50.0705H101.035V47.8724L103.116 50.0705H104.001L101.674 47.6394L103.775 45.5335H102.929L101.03 47.4696V45.5335H100.362V47.4696L98.4629 45.5335H97.6265ZM92.8099 50.0705L95.6845 46.538V50.0705H96.3527V45.5335H95.7278L92.8532 49.0709V45.5335H92.185V50.0705H92.8099ZM87.4886 46.1255H88.9932C89.5508 46.1255 89.8777 46.3536 89.8777 46.7903C89.8777 47.2124 89.5508 47.4551 88.9932 47.4551H87.4886V46.1255ZM87.4886 48.0228H89.1999C89.8055 48.0228 90.1565 48.2945 90.1565 48.7555C90.1565 49.2165 89.8055 49.4785 89.1999 49.4785H87.4886V48.0228ZM89.3393 50.0705C90.2959 50.0705 90.8342 49.5998 90.8342 48.8477C90.8342 48.2363 90.5458 47.853 89.9786 47.6831C90.3487 47.5036 90.5362 47.1785 90.5362 46.6884C90.5362 46.0042 90.0459 45.5335 89.1806 45.5335H86.8156V50.0705H89.3393ZM81.5183 49.4785C81.9557 48.7749 82.1672 47.7511 82.1672 46.3972V46.1255H84.215V49.4785H81.5183ZM80.8501 51.4146V50.0705H85.0707V51.4146H85.7196V49.4785H84.8832V45.5335H81.5423L81.5327 46.174C81.5231 47.7025 81.2731 48.8137 80.7684 49.4785H80.2012V51.4146H80.8501ZM75.8556 47.4114C75.8845 47.0378 76.0431 46.7175 76.3123 46.4458C76.5911 46.174 76.9564 46.0333 77.4083 46.0333C77.8842 46.0333 78.2351 46.174 78.4707 46.4652C78.711 46.7466 78.8408 47.0669 78.86 47.4114H75.8556ZM77.6294 50.1821C78.3072 50.1821 78.8264 50.0414 79.2013 49.7502V49.1485C78.7639 49.43 78.2832 49.5707 77.7592 49.5707C76.6824 49.5707 75.9181 48.9399 75.8412 47.9646H79.533V47.7753C79.533 46.7515 78.9369 45.4171 77.4323 45.4171C76.7642 45.4171 76.2114 45.6403 75.7883 46.1013C75.3701 46.5525 75.1538 47.1154 75.1538 47.7996C75.1538 48.4935 75.3846 49.066 75.8604 49.5076C76.3363 49.9589 76.9324 50.1821 77.6294 50.1821ZM70.467 50.0705V48.0519H73.231V50.0705H73.8992V45.5335H73.231V47.4405H70.467V45.5335H69.7988V50.0705H70.467ZM131.939 38.2696C131.28 38.2696 130.915 37.9784 130.915 37.4447C130.915 36.9109 131.275 36.6101 131.939 36.6101H133.482V38.2744H131.939V38.2696ZM130.785 40.5502L132.04 38.8615H133.482V40.5502H134.15V36.0132H131.833C130.79 36.0132 130.223 36.5761 130.223 37.3913C130.223 38.1143 130.622 38.6141 131.357 38.7354L130.016 40.5502H130.785ZM126.18 40.6666C126.935 40.6666 127.54 40.4046 127.992 39.8708C128.064 40.3609 128.401 40.5938 128.838 40.5938C129.045 40.5938 129.194 40.555 129.285 40.4919V39.9679C129.213 40.0067 129.127 40.0261 129.026 40.0261C128.766 40.0261 128.598 39.8078 128.598 39.4632V37.5951C128.598 36.4985 127.79 35.9162 126.589 35.9162C125.945 35.9162 125.416 36.0569 124.978 36.3286V36.9837C125.435 36.6731 125.92 36.5227 126.449 36.5227C127.435 36.5227 127.93 36.8963 127.93 37.6582V38.1094C127.435 37.8183 126.896 37.6679 126.31 37.6679C125.781 37.6679 125.344 37.7989 124.988 38.0706C124.642 38.3423 124.469 38.7111 124.469 39.1672C124.469 39.6379 124.637 40.0018 124.964 40.2736C125.296 40.5356 125.704 40.6666 126.18 40.6666ZM126.368 40.0552C125.671 40.0552 125.137 39.735 125.137 39.1284C125.137 38.5656 125.647 38.2162 126.468 38.2162C126.978 38.2162 127.473 38.3666 127.93 38.6675V39.2983C127.603 39.7059 127.007 40.0552 126.368 40.0552ZM119.912 36.0181V40.555H120.58V38.3181L123.007 40.555H123.964L121.258 38.0658L123.628 36.0181H122.714L120.575 37.8862V36.0181H119.912ZM117.104 40.6666C117.652 40.6666 118.138 40.5356 118.556 40.2833V39.6622C118.157 39.9242 117.71 40.0552 117.205 40.0552C116.696 40.0552 116.258 39.8854 115.912 39.5554C115.566 39.2158 115.403 38.7936 115.403 38.289C115.403 37.7698 115.571 37.3476 115.912 37.0225C116.258 36.6828 116.691 36.513 117.205 36.513C117.643 36.513 118.061 36.6246 118.47 36.8624V36.2316C118.09 36.0132 117.633 35.9016 117.109 35.9016C116.431 35.9016 115.855 36.1248 115.398 36.5858C114.941 37.0371 114.711 37.5999 114.711 38.2744C114.711 38.9586 114.932 39.5215 115.388 39.9824C115.845 40.4386 116.422 40.6666 117.104 40.6666ZM110.101 37.8959C110.13 37.5223 110.288 37.202 110.557 36.9303C110.836 36.6586 111.201 36.5179 111.653 36.5179C112.129 36.5179 112.48 36.6586 112.716 36.9497C112.956 37.2312 113.086 37.5514 113.105 37.8959H110.101ZM111.874 40.6666C112.552 40.6666 113.076 40.5259 113.446 40.2348V39.6331C113.009 39.9145 112.523 40.0552 112.004 40.0552C110.927 40.0552 110.163 39.4244 110.086 38.4491H113.778V38.2599C113.778 37.236 113.182 35.9016 111.677 35.9016C111.009 35.9016 110.461 36.1248 110.033 36.5858C109.615 37.0371 109.399 37.5999 109.399 38.2841C109.399 38.978 109.63 39.5506 110.105 39.9921C110.581 40.4386 111.177 40.6666 111.874 40.6666ZM108.144 40.5502V36.0132H107.476V38.1094C107.096 38.3084 106.678 38.4103 106.221 38.4103C105.294 38.4103 104.938 38.0706 104.938 37.0953V36.0132H104.27V37.1487C104.27 38.5025 104.856 39.0168 106.092 39.0168C106.587 39.0168 107.039 38.9246 107.476 38.7354V40.5502H108.144ZM99.2465 37.5369C99.5157 36.9449 100.15 36.513 100.828 36.513C101.323 36.513 101.741 36.6828 102.063 37.0225C102.39 37.3622 102.554 37.7843 102.554 38.2793C102.554 38.7791 102.385 39.2012 102.063 39.5457C101.737 39.8854 101.318 40.0504 100.828 40.0504C100.15 40.0504 99.5061 39.6282 99.2465 39.0265V37.5369ZM99.2465 39.8272C99.6647 40.3803 100.242 40.6618 100.987 40.6618C101.645 40.6618 102.193 40.4289 102.616 39.9679C103.039 39.5069 103.251 38.944 103.251 38.2793C103.251 37.6242 103.034 37.0613 102.616 36.6004C102.198 36.1394 101.65 35.9065 100.987 35.9065C100.242 35.9065 99.6647 36.1879 99.2465 36.7411V36.0181H98.5783V42.4329H99.2465V39.8272ZM93.6367 37.8959C93.6656 37.5223 93.8242 37.202 94.0934 36.9303C94.3722 36.6586 94.7327 36.5179 95.1894 36.5179C95.6653 36.5179 96.0162 36.6586 96.2517 36.9497C96.4921 37.2312 96.6219 37.5514 96.6411 37.8959H93.6367ZM95.4153 40.6666C96.0931 40.6666 96.6122 40.5259 96.9872 40.2348V39.6331C96.5498 39.9145 96.0643 40.0552 95.5451 40.0552C94.4683 40.0552 93.704 39.4244 93.6271 38.4491H97.3189V38.2599C97.3189 37.236 96.7228 35.9016 95.2182 35.9016C94.5501 35.9016 94.0021 36.1248 93.5694 36.5858C93.1512 37.0371 92.9349 37.5999 92.9349 38.2841C92.9349 38.978 93.1656 39.5506 93.6415 39.9921C94.1174 40.4337 94.7183 40.6666 95.4153 40.6666ZM87.4309 40.5502V36.9449L89.0941 38.9052H89.3537L91.0265 36.9449V40.5502H91.6755V36.0132H91.0265L89.2239 38.1143L87.4309 36.0132H86.7819V40.5502H87.4309ZM80.9511 40.5502V36.9449L82.6143 38.9052H82.8739L84.5467 36.9449V40.5502H85.2004V36.0132H84.5467L82.7441 38.1143L80.9511 36.0132H80.3021V40.5502H80.9511ZM78.3649 38.289C78.3649 38.7839 78.1967 39.2109 77.8698 39.5457C77.5429 39.8854 77.1247 40.0504 76.6248 40.0504C76.12 40.0504 75.7018 39.8805 75.3798 39.5457C75.0529 39.2061 74.8894 38.7839 74.8894 38.289C74.8894 37.7795 75.0577 37.3573 75.3798 37.0225C75.7066 36.6828 76.1248 36.513 76.6248 36.513C77.1247 36.513 77.5429 36.6828 77.8698 37.0225C78.1967 37.3622 78.3649 37.7843 78.3649 38.289ZM74.875 36.6101C74.4183 37.071 74.1972 37.6339 74.1972 38.289C74.1972 38.944 74.4232 39.5069 74.875 39.9679C75.3317 40.4289 75.9085 40.6618 76.6248 40.6618C77.341 40.6618 77.9178 40.4289 78.3745 39.9679C78.8312 39.5069 79.0523 38.944 79.0523 38.289C79.0523 37.6291 78.8312 37.0662 78.3745 36.6101C77.9178 36.1394 77.341 35.9065 76.6248 35.9065C75.9085 35.9065 75.3317 36.1394 74.875 36.6101ZM69.7988 36.0181V40.555H70.467V38.3181L72.8945 40.555H73.8511L71.1448 38.0658L73.5146 36.0181H72.6013L70.4622 37.8862V36.0181H69.7988Z" fill="#2e3350"/>
<path d="M105.552 13.571C105.254 12.7073 104.768 11.9358 104.144 11.305C103.067 10.2181 101.581 9.54845 99.9374 9.54845C98.2934 9.54845 96.8081 10.2229 95.7313 11.305H95.7265C95.1016 11.9358 94.6161 12.7073 94.3181 13.571H105.552ZM14.8488 0.231934H17.4061V2.81338V23.5669H14.8488V2.81338H2.55732V23.5669H0V2.81338V0.261047V0.231934H14.8488ZM66.0721 7.00582C67.9853 7.00582 69.7495 7.64633 71.1676 8.7284L69.6534 10.7567C68.6583 9.99971 67.4181 9.54845 66.0721 9.54845C64.4282 9.54845 62.9428 10.2229 61.866 11.305C60.7893 12.3919 60.1259 13.8962 60.1259 15.5557C60.1259 17.2152 60.7893 18.7194 61.866 19.8063V19.8015C62.9428 20.8884 64.4282 21.5629 66.0721 21.5629C67.5287 21.5629 68.865 21.034 69.8985 20.1557L71.5137 22.1015C70.0427 23.3485 68.144 24.1006 66.0721 24.1006C63.7359 24.1006 61.6209 23.1447 60.0874 21.5968V21.592C58.554 20.0441 57.607 17.909 57.607 15.5557C57.607 13.1974 58.554 11.0672 60.0874 9.51933V9.51448C61.6209 7.96658 63.7359 7.00582 66.0721 7.00582ZM85.5934 7.46679H88.1122H88.1507V23.5669H85.5934V10.0482H76.9744V23.5669H74.4171V10.0482V7.46679H76.9744H85.5934ZM51.507 11.3001C50.4302 10.2132 48.94 9.54359 47.296 9.54359C45.652 9.54359 44.1667 10.2181 43.0899 11.3001C42.0131 12.3871 41.3498 13.8913 41.3498 15.546C41.3498 17.2055 42.0131 18.7097 43.0899 19.7966C44.1667 20.8835 45.6568 21.5532 47.3008 21.5532C48.9448 21.5532 50.4302 20.8787 51.507 19.7918C52.5837 18.7048 53.2471 17.2055 53.2471 15.546C53.2519 13.8913 52.5837 12.3871 51.507 11.3001ZM47.3008 7.00582C49.6322 7.00582 51.7473 7.96173 53.2807 9.50963L53.2855 9.51448C54.8142 11.0624 55.7659 13.1926 55.7659 15.5508C55.7659 17.909 54.819 20.0441 53.2855 21.592C51.7521 23.135 49.637 24.0958 47.3008 24.0958C44.9694 24.0958 42.8544 23.1399 41.3209 21.592L41.3161 21.5871C39.7875 20.0392 38.8357 17.9042 38.8357 15.5508C38.8357 13.1926 39.7827 11.0575 41.3161 9.50963C42.8447 7.96658 44.9646 7.00582 47.3008 7.00582ZM24.2321 19.7141L24.3138 19.8015C25.3905 20.8884 26.8807 21.558 28.5247 21.558C30.1687 21.558 31.6541 20.8835 32.7308 19.7966C33.8076 18.7097 34.471 17.2103 34.471 15.5508C34.471 13.8913 33.8076 12.3871 32.7308 11.3001C31.6541 10.2132 30.1639 9.54359 28.5199 9.54359C26.8759 9.54359 25.3905 10.2181 24.3138 11.3001L24.2273 11.3875V19.7141H24.2321ZM28.5247 7.00582C30.8561 7.00582 32.9712 7.96173 34.5046 9.50963L34.5094 9.51448C36.0429 11.0624 36.9898 13.1926 36.9898 15.5508C36.9898 17.909 36.0429 20.0441 34.5094 21.592C32.9808 23.135 30.8609 24.0958 28.5247 24.0958C26.9576 24.0958 25.4915 23.6639 24.2321 22.9118V30.5785H21.6747V7.46679H24.2321V8.18979C25.4915 7.43767 26.9624 7.00582 28.5247 7.00582ZM117.8 13.571L121.761 7.46679H124.766L120.007 14.7987L125.698 23.5669H122.694L117.882 16.1525H114.06V23.5669H111.503V7.46679H114.06V13.571H117.8ZM131.591 7.46679H134.149H139.72V10.0482H134.149V17.7586C134.154 19.4181 134.154 21.3397 134.154 23.5717H134.149H131.64H131.591V10.0482H126.02V7.46679H131.591ZM99.9326 7.00582C102.269 7.00582 104.384 7.96173 105.917 9.50963V9.51448C107.451 11.0624 108.398 13.1926 108.398 15.5508C108.398 15.7498 108.393 15.9438 108.379 16.1379L108.388 16.1525H108.379H105.855H94.0152C94.1546 17.5742 94.7843 18.8504 95.7265 19.8015L95.7313 19.7966C96.8081 20.8835 98.2934 21.558 99.9374 21.558C101.394 21.558 102.73 21.0291 103.764 20.1508L105.379 22.0966C103.908 23.3437 102.009 24.0958 99.9374 24.0958C97.6012 24.0958 95.4862 23.1399 93.9527 21.592V21.5871C92.4241 20.0392 91.4723 17.9042 91.4723 15.5508C91.4723 13.1926 92.4193 11.0624 93.9527 9.51448V9.50963C95.4813 7.96658 97.5964 7.00582 99.9326 7.00582Z" fill="#2e3350"/>
</svg>
