<svg width="125" height="136" viewBox="0 0 125 136" fill="none" xmlns="http://www.w3.org/2000/svg">
<g filter="url(#filter0_d_3874:11936)">
<path fill-rule="evenodd" clip-rule="evenodd" d="M57.4 25C45.0288 25 35 35.0288 35 47.4C35 58.1676 42.5973 67.1606 52.7239 69.3112L57.3995 81.0001L62.0749 69.3115C72.2021 67.1614 79.8 58.168 79.8 47.4C79.8 35.0288 69.7712 25 57.4 25Z" fill="#00A0DC"/>
</g>
<g clip-path="url(#clip0_3874:11936)">
<path d="M49 41.4058V54.9996H54.2499V40.4214L49 41.4058ZM52.7501 53.4995H50.5001V51.9997H52.7501V53.4995ZM52.7501 50.4996H50.5001V48.9995H52.7501V50.4996ZM52.7501 47.4997H50.5001V45.9996H52.7501V47.4997ZM52.7501 44.4995H50.5001V42.9997H52.7501V44.4995Z" fill="white"/>
<path d="M55.75 37V55H67V39.1094L55.75 37ZM60.25 53.4999H58V52.0001H60.25V53.4999ZM60.25 50.5H58V48.9999H60.25V50.5ZM60.25 47.5001H58V46H60.25V47.5001ZM60.25 44.4999H58V43.0001H60.25V44.4999ZM60.25 41.5H58V39.9999H60.25V41.5ZM64.75 53.4999H62.5V52.0001H64.75V53.4999ZM64.75 50.5H62.5V48.9999H64.75V50.5ZM64.75 47.5001H62.5V46H64.75V47.5001ZM64.75 44.4999H62.5V43.0001H64.75V44.4999Z" fill="white"/>
</g>
<defs>
<filter id="filter0_d_3874:11936" x="0" y="0" width="124.801" height="136" filterUnits="userSpaceOnUse" color-interpolation-filters="sRGB">
<feFlood flood-opacity="0" result="BackgroundImageFix"/>
<feColorMatrix in="SourceAlpha" type="matrix" values="0 0 0 0 0 0 0 0 0 0 0 0 0 0 0 0 0 0 127 0" result="hardAlpha"/>
<feOffset dx="5" dy="15"/>
<feGaussianBlur stdDeviation="20"/>
<feColorMatrix type="matrix" values="0 0 0 0 0.117326 0 0 0 0 0.138241 0 0 0 0 0.258333 0 0 0 0.15 0"/>
<feBlend mode="multiply" in2="BackgroundImageFix" result="effect1_dropShadow_3874:11936"/>
<feBlend mode="normal" in="SourceGraphic" in2="effect1_dropShadow_3874:11936" result="shape"/>
</filter>
<clipPath id="clip0_3874:11936">
<rect width="18" height="18" fill="white" transform="translate(49 37)"/>
</clipPath>
</defs>
</svg>
