<svg width="68" height="68" viewBox="0 0 68 68" fill="none" xmlns="http://www.w3.org/2000/svg">
<g clip-path="url(#clip0_3862_101)">
<path d="M34.0013 33.9997C33.8341 33.9997 33.6698 33.9713 33.5111 33.9118L6.59447 23.9952C6.0363 23.7912 5.66797 23.2585 5.66797 22.6663C5.66797 22.0742 6.03914 21.5415 6.5973 21.3375L25.014 14.5658C25.745 14.2967 26.5638 14.6735 26.833 15.4073C27.1021 16.1412 26.7253 16.9543 25.9915 17.2263L11.1873 22.6663L34.0013 31.0728L56.8153 22.6663L42.0111 17.2235C41.2773 16.9543 40.9005 16.1383 41.1696 15.4045C41.4388 14.6707 42.2548 14.2938 42.9886 14.563L61.4053 21.3347C61.9635 21.5415 62.3346 22.0742 62.3346 22.6663C62.3346 23.2585 61.9663 23.7912 61.4081 23.9952L34.4915 33.9118C34.3328 33.9713 34.1685 33.9997 34.0013 33.9997Z" fill="#E0E6F1"/>
<path d="M33.9998 67.9999C33.8327 67.9999 33.6683 67.9716 33.5125 67.9121L18.4675 62.3871C17.7337 62.1179 17.3568 61.3048 17.626 60.5681C17.8952 59.8371 18.7112 59.4603 19.445 59.7266L33.9998 65.0731L48.5575 59.7266C49.2913 59.4603 50.1045 59.8371 50.3765 60.5681C50.6457 61.3019 50.2688 62.1151 49.535 62.3871L34.49 67.9121C34.3313 67.9716 34.167 67.9999 33.9998 67.9999Z" fill="#E0E6F1"/>
<path d="M7.08463 50.32C6.30264 50.32 5.66797 49.6853 5.66797 48.9033V22.6667C5.66797 21.8847 6.30264 21.25 7.08463 21.25C7.86663 21.25 8.5013 21.8847 8.5013 22.6667V48.9033C8.5013 49.6853 7.86663 50.32 7.08463 50.32Z" fill="#E0E6F1"/>
<path d="M60.9167 50.32C60.1347 50.32 59.5 49.6853 59.5 48.9033V22.6667C59.5 21.8847 60.1347 21.25 60.9167 21.25C61.6987 21.25 62.3333 21.8847 62.3333 22.6667V48.9033C62.3333 49.6853 61.6987 50.32 60.9167 50.32Z" fill="#E0E6F1"/>
<path d="M39.6658 8.50022C39.3032 8.50022 38.9405 8.36139 38.6628 8.08656L33.9992 3.42005L29.3355 8.08372C28.783 8.63622 27.8848 8.63622 27.3323 8.08372C26.7798 7.53122 26.7798 6.63305 27.3323 6.08055L32.999 0.413887C33.5515 -0.138613 34.4497 -0.138613 35.0022 0.413887L40.6688 6.08055C41.2213 6.63305 41.2213 7.53122 40.6688 8.08372C40.3912 8.36139 40.0285 8.50022 39.6658 8.50022Z" fill="#E0E6F1"/>
<path d="M33.9987 22.6663C33.2167 22.6663 32.582 22.0317 32.582 21.2497V2.12467C32.582 1.34267 33.2167 0.708008 33.9987 0.708008C34.7807 0.708008 35.4154 1.34267 35.4154 2.12467V21.2497C35.4154 22.0317 34.7807 22.6663 33.9987 22.6663Z" fill="#E0E6F1"/>
<path d="M66.5846 68.0003H58.0846C57.3026 68.0003 56.668 67.3657 56.668 66.5837C56.668 65.8017 57.3026 65.167 58.0846 65.167H65.168V58.0837C65.168 57.3017 65.8026 56.667 66.5846 56.667C67.3666 56.667 68.0013 57.3017 68.0013 58.0837V66.5837C68.0013 67.3657 67.3666 68.0003 66.5846 68.0003Z" fill="#E0E6F1"/>
<path d="M65.8757 67.2915C65.5131 67.2915 65.1504 67.1527 64.8727 66.8778L51.4144 53.4195C50.8619 52.867 50.8619 51.9688 51.4144 51.4163C51.9669 50.8638 52.865 50.8638 53.4175 51.4163L66.8759 64.8747C67.4284 65.4272 67.4284 66.3253 66.8759 66.8778C66.6011 67.1527 66.2384 67.2915 65.8757 67.2915Z" fill="#E0E6F1"/>
<path d="M9.91667 68.0003H1.41667C0.634667 68.0003 0 67.3657 0 66.5837V58.0837C0 57.3017 0.634667 56.667 1.41667 56.667C2.19867 56.667 2.83333 57.3017 2.83333 58.0837V65.167H9.91667C10.6987 65.167 11.3333 65.8017 11.3333 66.5837C11.3333 67.3657 10.6987 68.0003 9.91667 68.0003Z" fill="#E0E6F1"/>
<path d="M2.12441 67.2915C1.76174 67.2915 1.39907 67.1527 1.12141 66.8778C0.568906 66.3253 0.568906 65.4272 1.12141 64.8747L14.5797 51.4163C15.1322 50.8638 16.0304 50.8638 16.5829 51.4163C17.1354 51.9688 17.1354 52.867 16.5829 53.4195L3.12457 66.8778C2.84974 67.1527 2.48707 67.2915 2.12441 67.2915Z" fill="#E0E6F1"/>
<path d="M33.9987 68.0003C33.2167 68.0003 32.582 67.3657 32.582 66.5837V32.5837C32.582 31.8017 33.2167 31.167 33.9987 31.167C34.7807 31.167 35.4154 31.8017 35.4154 32.5837V66.5837C35.4154 67.3657 34.7807 68.0003 33.9987 68.0003Z" fill="#E0E6F1"/>
</g>
<defs>
<clipPath id="clip0_3862_101">
<rect width="68" height="68" fill="white"/>
</clipPath>
</defs>
</svg>
