<svg width="1336" height="290" viewBox="0 0 1336 290" fill="none" xmlns="http://www.w3.org/2000/svg">
<path d="M1009.29 127.472C1006.44 119.218 1001.79 111.845 995.818 105.817C985.522 95.4301 971.319 89.031 955.599 89.031C939.879 89.031 925.676 95.4765 915.38 105.817H915.334C909.359 111.845 904.716 119.218 901.867 127.472H1009.29ZM141.984 0H166.437V24.669V222.995H141.984V24.669H24.453V222.995H0V24.669V0.278219V0H141.984ZM631.78 64.733C650.074 64.733 666.943 70.8539 680.502 81.1944L666.023 100.577C656.509 93.3435 644.65 89.031 631.78 89.031C616.06 89.031 601.857 95.4765 591.561 105.817C581.265 116.204 574.922 130.579 574.922 146.437C574.922 162.296 581.265 176.671 591.561 187.058V187.012C601.857 197.398 616.06 203.844 631.78 203.844C645.707 203.844 658.485 198.79 668.368 190.397L683.812 208.991C669.747 220.908 651.591 228.096 631.78 228.096C609.441 228.096 589.217 218.961 574.554 204.169V204.122C559.892 189.33 550.837 168.927 550.837 146.437C550.837 123.901 559.892 103.545 574.554 88.7528V88.7064C589.217 73.9143 609.441 64.733 631.78 64.733ZM818.441 69.1382H842.527H842.894V222.995H818.441V93.8072H736.027V222.995H711.574V93.8072V69.1382H736.027H818.441ZM492.508 105.771C482.212 95.3837 467.963 88.9846 452.243 88.9846C436.523 88.9846 422.32 95.4301 412.024 105.771C401.728 116.158 395.385 130.532 395.385 146.345C395.385 162.203 401.728 176.578 412.024 186.965C422.32 197.352 436.569 203.751 452.289 203.751C468.009 203.751 482.212 197.306 492.508 186.919C502.804 176.532 509.147 162.203 509.147 146.345C509.193 130.532 502.804 116.158 492.508 105.771ZM452.289 64.733C474.582 64.733 494.806 73.8679 509.469 88.6601L509.515 88.7064C524.132 103.499 533.232 123.855 533.232 146.391C533.232 168.927 524.177 189.33 509.515 204.122C494.852 218.868 474.628 228.049 452.289 228.049C429.997 228.049 409.772 218.914 395.11 204.122L395.064 204.076C380.447 189.284 371.346 168.881 371.346 146.391C371.346 123.855 380.401 103.452 395.064 88.6601C409.68 73.9143 429.951 64.733 452.289 64.733ZM231.706 186.177L232.488 187.012C242.784 197.398 257.033 203.798 272.752 203.798C288.472 203.798 302.675 197.352 312.971 186.965C323.267 176.578 329.61 162.25 329.61 146.391C329.61 130.532 323.267 116.158 312.971 105.771C302.675 95.3837 288.426 88.9846 272.707 88.9846C256.987 88.9846 242.784 95.4301 232.488 105.771L231.66 106.605V186.177H231.706ZM272.752 64.733C295.045 64.733 315.27 73.8679 329.932 88.6601L329.978 88.7064C344.641 103.499 353.696 123.855 353.696 146.391C353.696 168.927 344.641 189.33 329.978 204.122C315.361 218.868 295.091 228.049 272.752 228.049C257.768 228.049 243.749 223.922 231.706 216.735V290H207.253V69.1382H231.706V76.0473C243.749 68.8599 257.814 64.733 272.752 64.733ZM1126.4 127.472L1164.28 69.1382H1193L1147.5 139.204L1201.92 222.995H1173.19L1127.18 152.141H1090.64V222.995H1066.19V69.1382H1090.64V127.472H1126.4ZM1258.27 69.1382H1282.73H1336V93.8072H1282.73V167.49C1282.77 183.348 1282.77 201.711 1282.77 223.041H1282.73H1258.73H1258.27V93.8072H1205V69.1382H1258.27ZM955.553 64.733C977.892 64.733 998.116 73.8679 1012.78 88.6601V88.7064C1027.44 103.499 1036.5 123.855 1036.5 146.391C1036.5 148.292 1036.45 150.147 1036.31 152.002L1036.4 152.141H1036.31H1012.18H898.971C900.304 165.728 906.325 177.923 915.334 187.012L915.38 186.965C925.676 197.352 939.879 203.798 955.599 203.798C969.526 203.798 982.304 198.743 992.187 190.35L1007.63 208.945C993.565 220.862 975.41 228.049 955.599 228.049C933.26 228.049 913.036 218.914 898.373 204.122V204.076C883.757 189.284 874.656 168.881 874.656 146.391C874.656 123.855 883.711 103.499 898.373 88.7064V88.6601C912.99 73.9143 933.214 64.733 955.553 64.733Z" fill="#F5F7FB"/>
</svg>
